HIERARCHY
ROOT Hips
{
  OFFSET 0 0 0
  CHANNELS 6 Xposition Yposition Zposition Zrotation Yrotation Xrotation
  JOINT LeftThigh
  {
    OFFSET 8.409438 0 -5.917753
    CHANNELS 3 Zrotation Yrotation Xrotation
    JOINT LeftLeg
    {
      OFFSET 0 0 -42.358652
      CHANNELS 3 Zrotation Yrotation Xrotation
      JOINT LeftFoot
      {
        OFFSET 0 0 -39.357303
        CHANNELS 3 Zrotation Yrotation Xrotation
      }
    }
  }
  JOINT RightThigh
  {
    OFFSET -8.409438 0 -5.917753
    CHANNELS 3 Zrotation Yrotation Xrotation
    JOINT RightLeg
    {
      OFFSET 0 0 -42.358652
      CHANNELS 3 Zrotation Yrotation Xrotation
      JOINT RightFoot
      {
        OFFSET 0 0 -39.357303
        CHANNELS 3 Zrotation Yrotation Xrotation
      }
    }
  }
  JOINT SpineLow
  {
    OFFSET 0 0 4.719101
    CHANNELS 3 Zrotation Yrotation Xrotation
    JOINT SpineMid
    {
      OFFSET 0 0 12.899191
      CHANNELS 3 Zrotation Yrotation Xrotation
      JOINT Chest
      {
        OFFSET 0 0 12.899191
        CHANNELS 3 Zrotation Yrotation Xrotation
        JOINT LeftShoulder
        {
          OFFSET 7.550562 1.41573 9.438202
          CHANNELS 3 Zrotation Yrotation Xrotation
          JOINT LeftArm
          {
            OFFSET 9.155056 0 4.247191
            CHANNELS 3 Zrotation Yrotation Xrotation
            JOINT LeftForearm
            {
              OFFSET 0 0 25.771955
              CHANNELS 3 Zrotation Yrotation Xrotation
              JOINT LeftHand
              {
                OFFSET 0 0 25.197169
                CHANNELS 3 Zrotation Yrotation Xrotation
              }
            }
          }
        }
        JOINT RightShoulder
        {
          OFFSET -7.550562 1.41573 9.438202
          CHANNELS 3 Zrotation Yrotation Xrotation
          JOINT RightArm
          {
            OFFSET -9.155056 0 4.247191
            CHANNELS 3 Zrotation Yrotation Xrotation
            JOINT RightForearm
            {
              OFFSET 0 0 -25.771955
              CHANNELS 3 Zrotation Yrotation Xrotation
              JOINT RightHand
              {
                OFFSET 0 0 -25.197169
                CHANNELS 3 Zrotation Yrotation Xrotation
              }
            }
          }
        }
        JOINT Neck
        {
          OFFSET 0 0 15.101124
          CHANNELS 3 Zrotation Yrotation Xrotation
          JOINT Head
          {
            OFFSET 0 0 11.325843
            CHANNELS 3 Zrotation Yrotation Xrotation
            End Site
            {
              OFFSET 0 0 14.157303
            }
          }
        }
      }
    }
  }
}
MOTION
Frames: 16
Frame Time: 0.0
0.0  101.685394  0.0  -119.584437  47.039992  158.154224  76.311907  -24.457765  -68.653502  -45.748115  38.835751  21.55239  -6.731607  -1.026521  -7.082961  -53.060694  44.149925  -54.309497  20.389513  -2.68154  60.34241  4.883205  -29.414834  -42.909127  -8.103168  -1.186053  4.004174  -22.281346  -1.861115  11.201625  -22.281346  -1.861115  11.201624  -1.25906  34.293327  1.791054  102.870775  54.37695  177.133244  -37.653465  -31.640681  80.145102  14.727664  0.39891  27.133213  9.623122  2.484876  24.645506  30.086428  40.903463  27.702607  -10.662241  6.473752  -169.66305  54.586836  26.18413  25.641264  7.689509  -16.929996  10.766266  6.032631  -12.570203  8.234831  
0.0  101.685394  0.0  -118.043934  47.439152  159.207086  78.040188  -23.029974  -68.993839  -46.598204  38.96345  22.879327  -7.302657  -0.945782  -7.043755  -51.774442  44.096266  -55.702975  19.304514  -5.146016  63.872738  4.358031  -28.791627  -42.528189  -8.222333  -1.172889  4.013093  -22.603708  -1.802261  11.222622  -22.603708  -1.802261  11.222622  -1.304049  34.13722  1.255861  102.683871  54.940958  176.795476  -37.07956  -31.605844  79.503083  14.109514  -1.020381  27.468158  9.333562  2.838044  24.316602  29.293921  40.818652  27.854042  -9.87697  5.793748  -169.739399  55.147819  25.542523  25.167824  8.246411  -16.552041  10.945414  6.447286  -12.274891  8.381526  
0.0  101.685394  0.0  -115.90272  47.90641  160.824021  79.486713  -22.174609  -69.227656  -47.079924  39.117496  24.158272  -7.350858  -0.873255  -6.956794  -50.534603  43.921052  -57.365511  17.264098  -6.870716  67.054213  4.283086  -28.470117  -41.369501  -8.289687  -1.189109  4.027278  -22.790321  -1.829396  11.267296  -22.790322  -1.829396  11.267296  -1.214953  33.795677  0.800687  102.810308  55.28479  176.894625  -36.934853  -31.804198  79.040851  13.651963  -2.220325  27.81085  9.071336  3.170159  23.810172  28.518072  40.879435  27.820188  -8.794184  5.074258  -169.639457  55.857182  25.055487  24.85843  8.85491  -16.096053  11.065634  6.897709  -11.920574  8.484403  
0.0  101.685394  0.0  -113.47483  48.540443  162.667815  80.700815  -21.997131  -69.253598  -47.425112  39.535945  25.071927  -6.92362  -0.943543  -6.699051  -49.686794  43.488575  -59.42163  14.818417  -7.313461  69.97264  4.957124  -28.476663  -39.619657  -8.324615  -1.181939  4.028206  -22.884176  -1.803789  11.267703  -22.884176  -1.803789  11.267703  -1.034677  33.345943  0.601987  103.237901  55.483166  177.140138  -37.248329  -32.103605  78.92662  13.255763  -3.08612  28.185918  8.762777  3.372561  23.434706  27.659558  41.087095  27.327175  -7.575155  4.36747  -169.369582  56.687248  24.683486  24.592871  9.46564  -15.656805  11.130881  7.348682  -11.579336  8.545575  
0.0  101.685394  0.0  -110.309049  49.414569  165.156016  81.93002  -22.576055  -69.033665  -47.395723  40.133647  25.676603  -6.318354  -1.136481  -6.287641  -49.424775  42.209055  -62.131483  12.978737  -6.251755  72.7899  6.810172  -28.78443  -37.697604  -8.266254  -1.139672  3.97138  -22.716934  -1.719726  11.099117  -22.716934  -1.719726  11.099118  -0.663316  32.711993  0.950877  104.486007  55.458541  177.990891  -37.831762  -32.3401  79.314653  12.959089  -3.598876  28.520206  8.318404  3.441242  23.281307  26.88547  41.341543  26.513815  -6.275418  3.677172  -168.846094  57.658018  24.37326  24.415198  9.969086  -15.278626  11.226577  7.721455  -11.285209  8.626375  
0.0  101.685394  0.0  -108.427362  50.313816  165.580964  81.509303  -25.095802  -68.148597  -46.922262  40.658269  26.085944  -5.703681  -1.292983  -5.833425  -50.415457  40.758096  -64.553201  12.329361  -3.748602  75.628403  10.00077  -29.208014  -35.843056  -8.366745  -0.995649  4.03243  -22.965294  -1.294694  11.214308  -22.965293  -1.294694  11.214308  -0.213544  32.012074  1.392901  106.617817  55.173517  179.322215  -38.529863  -32.286879  80.156364  12.812525  -3.822698  28.806673  7.92077  3.477297  23.066709  24.795696  41.121504  25.717174  -4.187926  3.80501  -169.390626  57.394462  25.889248  21.828939  10.494881  -14.923882  11.292289  8.110522  -11.008601  8.685002  
0.0  101.685394  0.0  -104.151168  51.425695  168.817935  81.974952  -27.355905  -67.243654  -46.391467  41.017015  26.236279  -4.840742  -1.271119  -5.366358  -50.498654  37.747524  -67.650101  12.571168  -0.37636  78.473432  13.960694  -29.539839  -33.992088  -8.250043  -0.890712  3.980457  -22.628751  -1.050339  11.037593  -22.628752  -1.050339  11.037593  0.485405  31.302403  1.87  109.133231  54.716803  -179.215112  -39.322001  -31.886801  81.294723  12.867055  -3.826378  29.104432  7.729011  3.520462  22.817877  24.278212  41.258085  24.440442  -2.741963  3.245676  -168.527779  58.427918  25.794225  21.687475  11.14867  -14.570612  11.318697  8.594241  -10.73139  8.716869  
0.0  101.685394  0.0  -99.607387  52.497454  172.150322  81.824991  -30.156883  -65.947958  -46.003831  41.262057  26.163667  -3.817659  -1.148194  -4.852988  -49.98453  34.786488  -70.27419  13.125977  3.079488  81.2397  17.97111  -29.627996  -32.117637  -8.120109  -0.764696  3.985353  -22.252954  -0.731698  11.008168  -22.252953  -0.731698  11.008168  1.112254  30.55356  2.113841  111.562548  54.167257  -177.931586  -40.797236  -31.656639  82.243401  12.757768  -3.294851  30.203998  7.594652  3.495693  22.310062  23.900435  41.302297  22.981305  -1.255521  2.782988  -167.56349  59.484883  25.849147  21.609113  11.920854  -14.198262  11.172529  9.162076  -10.440919  8.621736  
0.0  101.685394  0.0  -94.392153  53.535239  176.073344  81.322611  -33.179834  -64.280269  -45.768296  41.556258  25.9568  -2.768358  -1.070941  -4.315937  -48.680518  32.074349  -72.510581  13.660659  6.065602  83.905591  21.606102  -29.359055  -30.24754  -7.921094  -0.614702  4.013545  -21.68499  -0.352183  11.035781  -21.68499  -0.352183  11.035781  1.592393  29.718305  2.187347  113.679667  53.513146  -176.931668  -41.706206  -31.041677  83.428656  13.154864  -3.209246  30.692818  7.422319  3.359382  21.740415  23.615533  41.315014  21.230478  0.214551  2.402719  -166.501349  60.600753  26.003781  21.634306  12.633917  -13.834203  10.905877  9.683468  -10.160455  8.434295  
0.0  101.685394  0.0  -89.027824  54.518543  179.895576  79.983245  -36.519751  -62.037599  -45.615708  41.811586  25.721956  -1.523296  -0.919786  -3.736488  -47.084783  29.871219  -74.311163  14.228426  7.969611  86.487236  24.549845  -28.773348  -28.537231  -7.699079  -0.422915  4.094427  -21.0467  0.152727  11.195426  -21.046701  0.152727  11.195426  1.863588  28.782596  2.034533  115.54929  52.75797  -176.175396  -42.593163  -30.514376  84.471034  13.650403  -3.179871  31.363066  6.950651  3.156303  21.095686  23.701656  41.343746  19.354714  1.530213  2.057678  -165.343904  61.762079  26.167088  21.751652  13.512792  -13.300713  10.671558  10.328068  -9.74997  8.270823  
0.0  101.685394  0.0  -83.146318  55.38779  -175.801904  78.204805  -39.569322  -59.281114  -45.746338  42.006808  25.407476  -0.241985  -0.655078  -3.083823  -45.269051  27.705736  -75.93863  14.875952  8.432352  88.961597  26.457721  -27.78557  -26.914018  -7.427314  -0.203507  4.157613  -20.268265  0.717351  11.303976  -20.268264  0.717351  11.303975  2.076719  27.828196  1.870376  117.296167  51.897104  -175.614653  -43.364389  -30.081203  85.416232  14.2551  -3.234457  32.151547  6.647528  2.86146  20.654573  23.725784  41.340934  17.364388  2.578515  1.764276  -164.137369  62.804643  26.292142  22.007813  13.948754  -12.925289  10.347264  10.642278  -9.468006  8.031543  
0.0  101.685394  0.0  -77.987545  56.30893  -172.627821  75.347341  -42.552352  -55.801615  -46.348178  42.166601  25.071013  0.725123  -0.424085  -2.438328  -43.849282  25.633631  -77.012675  15.887755  7.702643  91.270622  27.440821  -26.4945  -25.303573  -7.203923  0.07838  4.27841  -19.609146  1.475116  11.554011  -19.609146  1.475116  11.554011  2.071042  26.980236  1.937204  120.129424  51.294314  -174.840824  -43.506871  -29.308097  86.588626  14.933903  -3.369659  32.99917  6.21688  2.466516  20.376299  23.916327  41.362876  15.435112  3.473591  1.51173  -162.960001  63.812069  26.386435  22.331854  14.281012  -12.385729  10.175024  10.88108  -9.061417  7.899759  
0.0  101.685394  0.0  -71.504481  56.788483  -167.671969  73.357966  -44.296207  -52.523815  -47.464635  42.222896  24.702044  1.055133  -0.352082  -1.878402  -41.88904  22.32716  -78.181623  17.399681  6.194038  93.371859  27.549617  -25.013367  -23.532251  -6.844194  0.317409  4.313556  -18.588146  2.067953  11.596248  -18.588146  2.067953  11.596249  1.999793  26.149253  2.044396  121.940288  50.553447  -174.384949  -43.965279  -28.984336  87.453278  15.627501  -3.550109  33.693535  5.930089  2.005509  20.119777  24.159386  41.371522  13.674408  4.352092  1.260348  -161.860114  64.79235  26.536473  22.690958  14.23308  -12.031671  9.803073  10.833848  -8.804739  7.613765  
0.0  101.685394  0.0  -64.911719  57.056185  -162.700701  71.266253  -45.395004  -48.928168  -49.151162  41.792878  24.312457  0.83748  -0.209559  -1.461116  -39.794086  18.780485  -78.930502  19.068043  4.472644  95.28308  27.229728  -23.385892  -21.617416  -6.474048  0.574674  4.324453  -17.537054  2.701962  11.575757  -17.537053  2.701962  11.575756  1.889529  25.397236  2.206855  123.839297  49.703051  -173.954795  -43.85907  -27.729834  88.371869  17.114768  -3.970099  33.709477  5.700858  1.593479  20.125475  24.464836  41.400011  12.020883  5.880198  1.233009  -162.302393  66.689476  25.630064  24.08147  13.991186  -11.664381  9.500611  10.643264  -8.539383  7.375501  
0.0  101.685394  0.0  -58.183693  56.973107  -157.391303  69.625926  -45.681908  -45.454093  -51.81001  40.9876  23.498995  0.374628  -8.63E-4  -1.267752  -37.500913  15.299305  -79.540199  20.332886  2.902511  97.131493  26.783656  -21.657196  -19.489531  -6.090213  0.812546  4.294545  -16.454457  3.271963  11.457686  -16.454457  3.271963  11.457686  1.833078  24.774273  2.346897  125.572101  48.78942  -173.503465  -44.034997  -27.169695  89.121297  17.745781  -3.946314  33.771072  5.715759  1.207272  20.264081  24.898703  41.477627  10.445676  6.636897  0.994745  -161.292458  67.563026  25.943725  24.423044  13.627498  -11.264154  9.182772  10.361243  -8.251173  7.122936  
0.0  101.685394  0.0  -51.623561  56.623988  -152.160811  68.060721  -45.74761  -41.870643  -55.206201  39.882259  21.960676  -0.468829  0.219727  -1.250086  -35.278259  12.289795  -80.105469  20.956906  1.598201  98.973066  26.324063  -19.868467  -17.047671  -5.705523  1.032092  4.277828  -15.372139  3.797172  11.386688  -15.37214  3.797172  11.386688  1.749308  24.312785  2.451678  127.01768  48.099143  -172.905988  -44.031992  -26.589557  89.617356  18.376895  -3.954192  33.60962  5.697566  0.92635  20.305242  24.577542  41.515539  8.943869  7.913065  1.046318  -160.905328  67.580831  27.441713  23.74208  13.168396  -10.800247  8.737416  10.005161  -7.91883  6.772383  
